<?xml version="1.0" encoding="UTF-8"?>
<!DOCTYPE svg PUBLIC "-//W3C//DTD SVG 1.1//EN" "http://www.w3.org/Graphics/SVG/1.1/DTD/svg11.dtd">
<!-- Creator: CorelDRAW 2018 (64-Bit) -->
<svg xmlns="http://www.w3.org/2000/svg" xml:space="preserve" width="8.5262in" height="2.64616in" version="1.1" style="shape-rendering:geometricPrecision; text-rendering:geometricPrecision; image-rendering:optimizeQuality; fill-rule:evenodd; clip-rule:evenodd"
viewBox="0 0 12546.22 4686.16"
 xmlns:xlink="http://www.w3.org/1999/xlink">
 <defs>
  <style type="text/css">
   <![CDATA[
    .fil0 {fill:#0044BF}
   ]]>
  </style>
 </defs>
 <g id="Layer_x0020_1">
  <metadata id="CorelCorpID_0Corel-Layer"/>
  <g id="_2680870305600">
   <g>
    <path class="fil0" d="M10358.65 1093.77l0 1247.6c0,601.59 492.19,1093.77 1093.8,1093.77 601.58,0 1093.77,-492.19 1093.77,-1093.77l0 -1247.6c0,-601.58 -492.19,-1093.77 -1093.8,-1093.77 -601.58,0 -1093.77,492.19 -1093.77,1093.77zm324.7 1230.49l0 -1213.39c0,-423 346.09,-769.06 769.09,-769.06 423,0 769.09,346.06 769.09,769.06l0 1213.39c0,423.01 -346.09,769.06 -769.13,769.06 -422.97,0 -769.06,-346.06 -769.06,-769.06z"/>
    <path class="fil0" d="M2704.97 1093.77l0 1247.6c0,601.59 492.19,1093.77 1093.8,1093.77 601.59,0 1093.77,-492.19 1093.77,-1093.77l0 -1247.6c0,-601.58 -492.19,-1093.77 -1093.8,-1093.77 -601.58,0 -1093.77,492.19 -1093.77,1093.77zm324.71 1230.49l0 -1213.39c0,-423 346.09,-769.06 769.09,-769.06 423.01,0 769.09,346.06 769.09,769.06l0 1213.39c0,423.01 -346.09,769.06 -769.13,769.06 -422.97,0 -769.06,-346.06 -769.06,-769.06z"/>
    <path class="fil0" d="M261.03 119.37l290.56 0 0 0.25 567.75 0c336.31,0 611.46,275.12 611.46,611.46l0 232.92c0,143.77 -50.31,276.31 -134.15,381.02 442.75,71.73 783.59,458 783.59,920.19l0 220.69c0,512.75 -419.48,932.17 -932.23,932.17l-647.94 0 -248.48 0 -290.56 0 0 -1779.6 -145.97 0c-63.3,0 -115.06,-51.76 -115.06,-115.06l0 -99.11c0,-63.3 51.76,-115.06 115.06,-115.06l145.97 0 0 -1189.87zm290.56 322.88l0 824.5c32.52,9.75 66.95,15 102.54,15l375.96 0c197.42,0 358.92,-161.5 358.92,-358.92l0 -136.66c0,-197.42 -161.5,-358.92 -358.92,-358.92l-375.96 0c-35.59,0 -70.03,5.25 -102.54,15zm0 1284.52l0 1314.61c87.54,44.12 186.25,69.02 290.52,69.02l563.98 0c357.25,0 649.45,-292.22 649.45,-649.45l0 -153.77c0,-357.22 -292.19,-649.44 -649.45,-649.44l-563.98 0c-104.27,0 -202.98,24.9 -290.52,69.02z"/>
    <path class="fil0" d="M6997.51 135l148.99 0c44.15,0 80.22,36.07 80.22,80.22l0 3112.04c2.42,13.99 2.36,28.11 0,41.79l0 37.86c0,44.15 -36.07,80.22 -80.22,80.22l-39.21 0c-30.69,12.64 -64.75,11.98 -94.65,0l-15.13 0c-44.15,0 -80.22,-36.07 -80.22,-80.22l0 -28.27 -1560.04 -2604.6 0 3831.91c0,44.15 -36.07,80.22 -80.22,80.22l-148.99 0c-44.15,0 -80.22,-36.07 -80.22,-80.22l0 -4390.73c0,-44.15 36.07,-80.22 80.22,-80.22l148.99 0c40.47,0 74.15,30.34 79.46,69.4 11.63,9.25 21.85,20.69 29.91,34.12l1530.89 2555.89 0 -2579.19c0,-44.15 36.07,-80.22 80.22,-80.22z"/>
    <path class="fil0" d="M8641.1 1884.65l1219.49 0c65.44,0 118.96,53.52 118.96,118.96l0 79.34c0,65.44 -53.52,118.96 -118.96,118.96l-158.64 0 0 333.2c0,471.09 -385.43,856.51 -856.51,856.51l-418.57 0c-471.09,0 -856.51,-385.43 -856.51,-856.51l0 -1578.53c0,-471.09 385.43,-856.51 856.51,-856.51l418.57 0c471.08,0 856.51,385.46 856.51,856.51l0 110.37c-89.28,28.33 -178.45,30.78 -267.7,0 0,-362.66 -263.1,-614.79 -633.41,-614.79l-309.58 0c-348.35,0 -633.38,285.02 -633.38,633.41l0 1320.56c0,348.42 285.02,633.41 633.38,633.41l309.58 0c348.39,0 633.41,-284.99 633.41,-633.41l0 -204.21 -793.15 0c-65.44,0 -118.96,-53.52 -118.96,-118.96l0 -79.34c0,-65.44 53.52,-118.96 118.96,-118.96z"/>
    <g>
     <path class="fil0" d="M3340.52 4194.39l0 99.65 -198.11 0 0 -99.65c0,-51 26.1,-114.59 77.07,-114.59l47.01 0c50.97,0 74.02,63.77 74.02,114.59zm0 181.22l0 163.74c0,9.94 -1.61,19.56 -4.53,28.56l86.13 0 0 -419.55c0,-92.95 -76.07,-159.62 -168.99,-159.62l-23.33 0c-92.92,0 -168.99,66.7 -168.99,159.62l0 419.55 86.13 0c-2.93,-9 -4.53,-18.62 -4.53,-28.56l0 -163.74 198.11 0z"/>
     <path class="fil0" d="M2326.87 4567.39l0 -578.64 101.76 0 145.82 249.68 150.97 -249.68 90.88 0 0 578.64 -82.26 4.43 0 -460.54 -132.7 240.8c-22.39,7.84 -42.77,7.69 -61.16,0l-130.75 -254.13 0 469.45 -82.54 0z"/>
     <polygon class="fil0" points="4349.01,4570.98 4349.01,4075.87 4230.62,4075.87 4230.62,3988.73 4584.25,3988.73 4584.25,4075.87 4438.41,4075.87 4438.41,4570.98 "/>
     <path class="fil0" d="M3681.89 4571.8l0 -583.06 196.57 0c39.56,0 69.62,5.31 90.15,15.76 20.57,10.44 36.95,28.9 49.28,55.37 12.3,26.48 18.36,55.79 18.36,87.8 0,41.42 -10.25,76.32 -30.56,104.65 -20.28,28.33 -59.37,50.09 -101.91,57.83 15.59,9.78 36.91,20.22 43.08,30.97 11.82,20.54 34.21,35.94 48.52,71.89l61.51 154.71 -76.89 -0.94 -58.65 -121.35c-17.01,-35.28 -26.22,-63.65 -42.23,-80.47 -5.91,-6.23 -22.36,-24.91 -27.74,-26.51 -6.51,-1.92 -13.77,-6.51 -28.8,-6.51l-67.96 0 0 239.87 -72.73 0zm72.73 -325.71l112.07 0c26.85,0 47.7,-3.77 62.8,-11 15,-7.23 26.54,-18.87 34.28,-35.03 7.83,-16 11.76,-33.36 11.76,-52.23 0,-27.54 -7.58,-50.37 -22.7,-68.14 -15.13,-17.74 -39.21,-26.6 -71.89,-26.6l-126.32 0 0 193.01z"/>
    </g>
   </g>
   <g>
    <path class="fil0" d="M1108.41 3999.24c75.93,41.41 99.61,7.92 124.71,69.41 16.21,39.69 32.92,78.15 49.52,116.74 17.14,39.85 32.98,76.69 49.31,116.68 13.83,33.85 -36.61,80.35 -38.54,121.22 19.8,10.32 12.66,5.08 30.48,11.5 -47.83,119.26 155.81,132.63 117.01,-2.09l138.97 0.34c-62.85,117.99 168.55,134.03 114.49,1.75 29.59,-8.53 38.78,0.52 32.7,-30.41 -42.96,-7.86 -293.59,-4.04 -382.41,-3.61l16.02 -47.28c81.22,-1.75 302.68,7.19 357.83,-3.32 11.33,-5.56 6.46,-2.71 13.11,-11.39l49.96 -125.39c76.83,-177.14 87.72,-145.96 -223.97,-145.95 -89.99,0 -180.11,0.26 -270.07,0 -37.89,-34.1 5.14,-48.33 -70.19,-71.84 -46.46,-14.51 -112.99,-48.94 -108.94,3.64z"/>
    <polygon class="fil0" points="1313.56,4146.75 1435.93,4148.69 1438.41,4106.17 1303.66,4105.73 "/>
    <polygon class="fil0" points="1641.72,4148.28 1756.74,4148.12 1773.72,4106.99 1642.99,4105.44 "/>
    <path class="fil0" d="M1357.22 4235.43l77.94 -0.49 3.52 -48.17 -104.07 0.22c2.37,17.89 10.68,36.5 22.61,48.44z"/>
    <polygon class="fil0" points="1640.87,4234.91 1725.79,4234.88 1742.16,4186.83 1642.41,4186.78 "/>
    <polygon class="fil0" points="1583.71,4185.8 1495.75,4186.75 1490.04,4232.45 1590.08,4232.78 "/>
    <polygon class="fil0" points="1488.79,4314.56 1593.21,4314.79 1592.75,4275.69 1488.43,4273.36 "/>
    <polygon class="fil0" points="1491.25,4109.2 1492.64,4145.58 1588.84,4145.76 1589.04,4109.72 "/>
    <path class="fil0" d="M1386.23 4314.01l51.13 1.04 3.63 -18.08c0.85,-6.89 -1.72,-16.63 -2.79,-23.56l-65.75 0.94 13.79 39.65z"/>
    <path class="fil0" d="M1365.54 4450.4c-28.53,11.1 -12.8,58.65 30.42,42.69 28.64,-10.58 16.27,-60.84 -30.42,-42.69z"/>
    <path class="fil0" d="M1649.75 4494.58c26.48,-19.22 20.82,-28.07 2.15,-47.78 -31.54,-0.15 -45.65,1.48 -44.95,24.72 0.67,22.35 14.14,22.58 42.81,23.06z"/>
    <path class="fil0" d="M1701.32 4292.36l6.17 -17.77 -19.22 -1.46 -47.37 0.27 -0.26 42.23c8.49,0.15 22.31,1.05 29.79,0.43 20.61,-1.72 -5.54,1.6 13.28,-1.76l17.61 -21.93z"/>
   </g>
  </g>
 </g>
</svg>
